<svg xmlns="http://www.w3.org/2000/svg" viewBox="0 0 600 260"><defs><style>.cls-1{fill:#fff;}</style></defs><title>1</title><g id="argql-logo-white"><path class="cls-1" d="M574.71,12.05V151q0,16.63.45,20.95a8.82,8.82,0,0,0,3.62,6.61q3.16,2.28,11.3,2.28h3v5.84H537.5v-5.84h3.56q7.62,0,10.85-2.09a8.43,8.43,0,0,0,3.88-5.91q.63-3.81.63-21.84V48.12q0-16.38-2.92-20.64t-14.22-4.25V17.38a111.36,111.36,0,0,0,18.22-1.77q10.49-1.78,14.42-3.56Z"/><path class="cls-1" d="M122.69,146.7H52.07L33.69,186.76H6.87L88.5,11.44l78.74,175.32H140Zm-10.15-23.4L88.07,67.21,62.43,123.3Z"/><path class="cls-1" d="M178.89,82.7h24V92q6.63-6.94,11.75-9.5a26.84,26.84,0,0,1,12.4-2.68q9.49,0,19.87,6.2l-11,22q-6.84-4.92-13.35-4.91-19.67,0-19.66,29.7v53.95h-24Z"/><path class="cls-1" d="M336.58,98.76a114.3,114.3,0,0,1,1.21-16.06h-13V94.45a41.94,41.94,0,0,0-32.69-14.64q-22.44,0-36.11,16.88-12.72,15.93-12.72,38.68,0,23.4,13.68,39,13.56,15.39,34.83,15.38,18.69,0,33-14.63v14.53q0,32.37-26.39,32.37-14.31,0-21.79-9.72-3.21-4.17-4.6-11.86H247.91q2.13,20.4,16,31.94,13.47,11.22,34.3,11.22,24.67,0,38.78-16.24a44,44,0,0,0,10-20.19,89.91,89.91,0,0,0,1.34-9.88q.48-5.61.48-13V149.56C340.74,135,336.58,118.06,336.58,98.76Zm-18.16,59.48q-8,10-21.8,10T275,158.34q-7.16-9.08-7.16-23.29,0-14.42,7.16-23.5,7.9-10.15,21.58-10.15a26.83,26.83,0,0,1,21.05,9.29q8.13,9.09,8.12,24.25Q325.79,149.16,318.42,158.24Z"/><path class="cls-1" d="M452.51,188.55a119.83,119.83,0,0,1-12.83.64q-41.54,0-67.76-24.71T345.7,98.76q0-39.75,26.6-63.95t66.62-24.2a111.31,111.31,0,0,1,47.63,10.74q23,10.73,34.8,31.75a93.42,93.42,0,0,1,11.81,46.55q0,29.71-15.43,52.58t-44.65,32l-38,21c2.62-.26,4.91-.38,6.86-.38q28.18,0,64.9,12.7,28.2,9.78,44.7,9.78,22.88,0,27.18-17.28h5.34q-2.16,17.53-14.61,28.45t-32.13,10.93a63.66,63.66,0,0,1-23.56-4.19q-10.6-4.2-27.62-15-30.48-19.44-50.81-19.43-12.18,0-23.62,9.65-7.62,6.34-10.54,6.35-4.57,0-4.57-4.19,0-3.18,5.46-6.54t20.57-10.73q3.18-1.53,6.35-3.31Zm-77.73-88.9q0,41.52,16.58,62.36t49.72,20.82q29.09,0,46-20.82T504,99.9q0-40.14-16.64-61.54T439.05,17q-31.12,0-47.69,20.9T374.78,99.65Z"/><path class="cls-1" d="M461.11,64c0,11.81-6.31,32.56-29.94,41.48L427,97c15.49-8.14,17.86-19.43,18.64-23.89-12.86.79-17.06-8.4-17.06-15.23A15.68,15.68,0,0,1,444,42.43C453.75,42.43,461.11,51.35,461.11,64Z"/><path class="cls-1" d="M494.05,84.33c-1.72-17-6.36-30.62-13.94-40.37-.32-.41-.69-.76-1-1.16a15.76,15.76,0,0,0-12.21,15.12c0,6.83,4.2,16,17.07,15.23-.79,4.46-3.15,15.75-18.64,23.89l4.2,8.4C482.06,100.7,489.62,92.63,494.05,84.33Z"/></g></svg>